<?xml version="1.0" encoding="UTF-8" standalone="no"?><!DOCTYPE svg PUBLIC "-//W3C//DTD SVG 1.1//EN" "http://www.w3.org/Graphics/SVG/1.1/DTD/svg11.dtd"><svg width="100%" height="100%" viewBox="0 0 923 555" version="1.1" xmlns="http://www.w3.org/2000/svg" xmlns:xlink="http://www.w3.org/1999/xlink" xml:space="preserve" xmlns:serif="http://www.serif.com/" style="fill-rule:evenodd;clip-rule:evenodd;stroke-linejoin:round;stroke-miterlimit:2;"><path d="M284.896,427.537c-14.892,-0.566 -26.567,-13.029 -26.059,-27.92c0.563,-14.946 13.084,-26.567 27.975,-26.059c14.892,0.509 26.509,13.029 26.005,27.921c-0.509,14.888 -13.034,26.563 -27.921,26.058m-39.821,-132.154c0.337,-9.646 8.458,-17.204 18.046,-16.866c9.646,0.341 17.204,8.462 16.866,18.108c-0.337,9.646 -8.458,17.146 -18.104,16.808c-9.591,-0.341 -17.15,-8.404 -16.808,-18.05m-10.546,-133.396c0.45,-12.183 10.658,-21.658 22.783,-21.204c12.184,0.392 21.717,10.604 21.267,22.784c-0.454,12.129 -10.604,21.662 -22.787,21.208c-12.13,-0.392 -21.659,-10.604 -21.263,-22.788m-47.325,115.405c-26.171,-0.963 -46.646,-22.9 -45.742,-49.13c0.9,-26.17 22.9,-46.7 49.125,-45.741c26.171,0.9 46.646,22.9 45.746,49.071c-0.904,26.229 -22.9,46.7 -49.129,45.8m10.658,107.558c-20.304,-0.729 -36.208,-17.821 -35.475,-38.125c0.675,-20.308 17.709,-36.267 38.071,-35.533c20.363,0.729 36.213,17.82 35.479,38.125c-0.679,20.304 -17.712,36.212 -38.075,35.533m196.005,110.383c-0.9,-2.596 -2.2,-4.908 -3.838,-7.108c-1.692,-2.142 -3.55,-4.175 -5.583,-5.921c-1.017,-0.9 -2.029,-1.637 -3.1,-2.425c-0.904,-0.679 -1.863,-1.242 -2.934,-1.862c-1.862,-1.125 -3.725,-2.2 -5.583,-3.271c-0.112,-0.058 -0.225,-0.171 -0.342,-0.171c-1.745,-1.125 -3.495,-2.425 -5.187,-3.721c-0.9,-0.679 -1.692,-1.354 -2.479,-2.142c-0.792,-0.791 -1.413,-1.579 -2.088,-2.425c-0.958,-1.3 -1.862,-2.654 -2.596,-4.116l-0.058,0c-0.337,-0.625 -0.733,-1.242 -1.012,-1.867c6.541,-1.8 12.97,-4.112 19.062,-7.216c2.371,-1.242 4.683,-2.651 6.942,-4.175c1.408,-0.959 2.871,-1.975 4.171,-3.101c0.787,-0.674 1.637,-1.354 2.2,-2.204c0.395,-0.558 0.787,-1.066 1.07,-1.745c0.284,-0.846 0.455,-1.634 0.509,-2.538c0,-1.467 -0.621,-3.046 -1.467,-4.175c-1.242,-1.462 -2.708,-2.483 -4.287,-3.496c-1.467,-0.904 -3.046,-1.804 -4.567,-2.708c-1.696,-1.013 -3.329,-2.088 -5.021,-3.158c-0.733,-0.45 -1.525,-0.959 -2.312,-1.463c-0.171,-0.171 -0.284,-0.287 -0.455,-0.346c-0.675,-0.616 -1.466,-1.012 -2.141,-1.521c-6.204,-4.341 -12.296,-9.025 -17.934,-14.041c-4.629,-4.288 -9.025,-8.688 -13.145,-13.425c-2.196,-2.538 -4.342,-5.134 -6.371,-7.838c-1.917,-2.596 -3.838,-5.246 -5.584,-8.012c-1.637,-2.538 -3.27,-5.134 -4.737,-7.729c-1.413,-2.48 -2.708,-5.075 -4.004,-7.671c-1.358,-2.817 -2.709,-5.809 -3.896,-8.738c-1.183,-2.766 -2.2,-5.646 -3.158,-8.462c-2.821,-8.404 -5.017,-16.863 -6.825,-25.438c-2.2,-11.562 -3.609,-23.179 -4.342,-34.916c-0.563,-9.53 -0.508,-19.005 0.171,-28.596c1.071,-13.988 2.875,-27.863 5.696,-41.684c0.845,-4 1.862,-8.008 2.933,-11.954c1.125,-3.95 2.367,-7.841 3.721,-11.733c2.537,-7.05 5.529,-13.929 8.912,-20.588c2.704,-5.358 5.642,-10.716 9.025,-15.625c2.65,-3.833 5.471,-7.5 8.575,-11.054c2.48,-2.708 5.188,-5.3 8.009,-7.725c2.479,-2.141 5.075,-4.062 7.783,-5.866c2.425,-1.638 4.904,-3.105 7.5,-4.455c1.75,-0.962 3.554,-1.804 5.3,-2.766c1.242,-0.734 2.429,-1.467 3.329,-2.596c0.846,-1.071 1.467,-2.538 1.354,-3.946c-0.054,-1.692 -0.62,-3.046 -1.804,-4.287c-0.9,-1.017 -2.258,-1.746 -3.554,-2.259c-1.183,-0.504 -2.479,-0.958 -3.779,-1.35c-1.525,-0.454 -3.046,-0.904 -4.625,-1.241c-5.921,-2.142 -12.071,-3.725 -18.217,-5.021c-6.937,-1.467 -13.987,-2.538 -21.042,-3.217c-0.166,-0.9 -0.337,-1.804 -0.504,-2.704c-0.225,-1.129 -0.337,-2.258 -0.508,-3.442c-0.171,-1.466 -0.454,-2.875 -0.621,-4.4c-0.454,-2.933 -0.792,-5.921 -1.017,-8.912c-0.112,-1.579 -0.054,-3.159 0,-4.792c0.117,-1.071 0.225,-2.146 0.455,-3.158c0.279,-1.3 0.62,-2.542 1.012,-3.784c0.396,-1.125 0.904,-2.195 1.413,-3.27c0.508,-0.9 1.012,-1.859 1.52,-2.763c1.296,-2.308 2.655,-4.567 3.725,-6.937c1.184,-2.592 2.142,-5.413 2.425,-8.292c0.167,-1.521 0.225,-3.158 -0.112,-4.738c-0.283,-1.579 -0.679,-3.045 -1.242,-4.566c-1.241,-3.159 -3.666,-5.809 -6.429,-7.729c-1.412,-1.017 -2.879,-1.863 -4.458,-2.484c-0.846,-0.279 -1.634,-0.621 -2.538,-0.787c-0.958,-0.225 -1.916,-0.338 -2.933,-0.396c-3.046,-0.279 -6.317,0.342 -8.854,2.029c-4.229,2.708 -7.334,7.167 -7.954,12.188c-0.392,3.495 0.112,7.104 1.466,10.433c0.509,1.183 1.129,2.371 1.75,3.496c0.45,0.791 0.959,1.525 1.409,2.371c0.17,0.395 0.283,0.733 0.395,1.125c0.338,0.958 0.621,1.92 0.788,2.879c0.342,1.691 0.508,3.441 0.679,5.187c0.113,2.146 0.058,4.342 -0.058,6.542l0,0.117c-0.225,2.479 -0.621,5.016 -1.125,7.441c-0.509,2.65 -1.3,5.25 -2.2,7.842c-0.059,0.058 -0.059,0.112 -0.113,0.225c-0.454,1.354 -0.958,2.654 -1.637,3.95c-0.563,1.012 -1.129,2.029 -1.804,3.046c-0.509,0.733 -1.13,1.354 -1.692,2.083c-0.45,0.621 -0.958,1.242 -1.354,1.921c-6.488,0.337 -12.975,1.017 -19.346,2.087c-3.217,0.45 -6.433,1.013 -9.646,1.634c-0.958,-1.184 -1.862,-2.367 -2.762,-3.609c-1.13,-1.579 -2.259,-3.158 -3.33,-4.795c-1.466,-2.313 -2.933,-4.68 -4.17,-7.163c-0.792,-1.692 -1.525,-3.442 -2.146,-5.3c-0.846,-2.425 -1.467,-4.908 -1.975,-7.446c-0.621,-3.046 -0.904,-6.204 -1.129,-9.362c-0.167,-2.371 -0.113,-4.796 0.058,-7.221c0.167,-2.029 0.45,-4.063 0.846,-6.092c0.112,-0.508 0.225,-1.012 0.396,-1.466c0.279,-0.846 0.62,-1.634 1.012,-2.371c0.792,-1.521 1.579,-3.159 2.258,-4.792c1.58,-4.175 2.592,-8.742 2.367,-13.312c-0.112,-2.142 -0.337,-4.288 -0.9,-6.317c-0.679,-2.313 -1.579,-4.513 -2.767,-6.654c-1.237,-2.2 -2.591,-4.346 -4.229,-6.263c-1.862,-2.312 -3.891,-4.454 -6.316,-6.204c-2.934,-2.142 -6.259,-3.892 -9.813,-4.625c-0.958,-0.225 -1.975,-0.45 -2.992,-0.567c-1.012,-0.054 -1.975,-0.108 -2.933,-0.108c-1.692,0 -3.437,0.108 -5.075,0.392c-1.746,0.337 -3.442,0.791 -5.021,1.466c-1.579,0.734 -3.046,1.525 -4.4,2.484c-1.296,0.958 -2.479,2.087 -3.554,3.325c-0.9,1.129 -1.804,2.371 -2.537,3.612c-0.846,1.638 -1.58,3.271 -2.03,5.021c-0.45,1.354 -0.733,2.817 -0.958,4.229c-0.225,1.242 -0.337,2.484 -0.45,3.721c-0.117,1.75 -0.229,3.5 -0.117,5.246c0.171,3.217 0.792,6.375 1.975,9.362c0.509,1.242 1.075,2.43 1.696,3.555c0.563,1.016 1.238,2.033 1.971,2.991c1.413,1.692 2.933,3.325 4.738,4.625c1.525,1.071 3.05,2.084 4.57,3.1c1.35,0.963 2.709,1.975 3.946,3.104c1.071,1.013 2.2,2.142 3.159,3.271c0.62,0.788 1.187,1.467 1.75,2.254c0.508,0.85 1.016,1.696 1.412,2.484c0.621,1.354 1.125,2.708 1.579,4.062c0.788,2.367 1.409,4.738 1.917,7.104c0.508,2.65 0.787,5.305 0.9,7.955c0.283,4.287 0.342,8.575 0.058,12.858c-0.171,2.087 -0.45,4.233 -0.846,6.262c-0.225,1.184 -0.562,2.313 -0.958,3.384c-0.508,1.412 -1.071,2.821 -1.75,4.175c-0.562,1.012 -1.183,2.029 -1.804,3.046c0,0 -0.058,0 -0.058,0.054c-0.055,0 -0.055,0 -0.055,0.058c0,0.054 -0.058,0.054 -0.058,0.054c-0.504,0.679 -0.958,1.354 -1.467,1.975c-0.112,0.171 -0.225,0.284 -0.337,0.454c-5.867,2.2 -11.617,4.625 -17.204,7.388c-1.634,0.733 -3.213,1.521 -4.679,2.312c-1.355,-0.845 -2.709,-1.75 -4.005,-2.65c-0.058,0 -0.058,0 -0.116,-0.058c0,0 -0.054,0 -0.109,-0.054c0,0 -0.058,-0.058 -0.112,-0.117l-0.058,0l0,-0.054l-0.059,0c-1.35,-1.012 -2.708,-2.029 -3.946,-3.217c-1.016,-0.845 -1.916,-1.745 -2.82,-2.704c-0.675,-0.791 -1.242,-1.637 -1.805,-2.537c-0.62,-0.959 -1.183,-1.921 -1.691,-2.992c-1.071,-2.142 -1.917,-4.342 -2.767,-6.6c-0.45,-1.633 -0.9,-3.329 -1.296,-4.962c-0.396,-1.975 -0.675,-3.892 -0.791,-5.925c-0.109,-1.746 -0.109,-3.438 -0.167,-5.13c-0.058,-2.145 -0.225,-4.287 -0.563,-6.429c-0.17,-1.075 -0.395,-2.2 -0.737,-3.329c-0.392,-1.183 -0.9,-2.425 -1.463,-3.608c-0.566,-1.017 -1.129,-2.088 -1.92,-2.992c-0.846,-1.071 -1.805,-2.029 -2.817,-2.933c-0.963,-0.9 -1.975,-1.634 -3.104,-2.313c-1.017,-0.616 -2.088,-1.183 -3.213,-1.637c-1.187,-0.504 -2.371,-0.9 -3.666,-1.238c-1.359,-0.283 -2.709,-0.508 -4.175,-0.508c-2.538,-0.171 -5.246,0.225 -7.617,1.183c-1.975,0.792 -3.892,2.029 -5.413,3.496c-0.845,0.792 -1.691,1.696 -2.258,2.708c-0.562,1.017 -1.012,2.034 -1.408,3.159c-0.9,2.541 -1.521,5.246 -1.413,7.954c0.059,2.875 0.734,5.696 1.75,8.346c1.579,4.121 4.288,7.729 7.729,10.491c2.934,2.425 6.259,4.346 9.417,6.488c1.638,1.129 3.158,2.312 4.629,3.667c0.954,0.845 1.859,1.75 2.763,2.762c1.354,1.638 2.591,3.442 3.833,5.246c0.45,0.675 0.846,1.412 1.183,2.142c0.68,1.358 1.3,2.708 1.75,4.175c0.338,1.075 0.621,2.087 0.846,3.158c0.059,0.058 0.059,0.117 0,0.171c0,0.054 0,0.112 0.059,0.112c0.225,1.184 0.337,2.313 0.45,3.442c0.054,1.75 0.112,3.496 0,5.246c-0.171,1.237 -0.284,2.425 -0.509,3.608l0,0.171c-4.85,3.55 -9.533,7.333 -13.987,11.392c-1.296,0.17 -2.65,0.337 -3.946,0.454c0.054,0 0.054,0 0.054,-0.059c-1.183,0.059 -2.425,0.167 -3.608,0.225l-0.171,0c-0.058,0.059 -0.113,0.059 -0.171,0.059l-0.054,0c-2.708,0.112 -5.417,0.054 -8.067,-0.117c-2.425,-0.225 -4.85,-0.621 -7.275,-1.071c-2.654,-0.562 -5.358,-1.296 -8.008,-2.254c-3.554,-1.296 -7.054,-2.875 -10.438,-4.571c-1.579,-0.787 -3.1,-1.691 -4.566,-2.65c-2.088,-1.466 -4.063,-3.158 -5.925,-4.796c-2.254,-2.141 -4.396,-4.283 -6.429,-6.595c-0.9,-1.075 -1.692,-2.2 -2.538,-3.271c-0.787,-1.075 -1.579,-2.146 -2.367,-3.275c-0.791,-1.184 -1.583,-2.479 -2.258,-3.834c-0.621,-1.354 -1.183,-2.766 -1.75,-4.175c-0.621,-1.408 -1.183,-2.875 -1.746,-4.341c-1.412,-3.613 -2.991,-7.163 -5.641,-10.096c-3.721,-4.175 -8.967,-6.825 -14.55,-7.504c-1.525,-0.167 -3.163,-0.279 -4.742,-0.167c-0.675,0.058 -1.35,0.167 -2.083,0.279c-0.734,0.117 -1.467,0.229 -2.146,0.454c-2.875,0.905 -5.525,2.367 -7.784,4.288c-1.183,0.958 -2.2,2.029 -3.104,3.325c-0.841,1.071 -1.633,2.2 -2.141,3.442c-1.013,2.483 -1.521,5.133 -1.634,7.837c-0.116,2.429 0.113,4.908 0.675,7.338c0.621,2.479 1.863,4.791 3.329,6.933c2.934,4.287 7.275,7.558 11.9,9.871c1.917,0.958 3.834,1.696 5.867,2.316c1.975,0.563 4.058,0.9 6.038,1.296c2.479,0.509 4.904,1.184 7.329,1.975c2.596,0.959 5.133,1.971 7.558,3.213c0.054,0.058 0.113,0.058 0.113,0.058l0,0.054l0.058,0c0.054,0 0.054,0.059 0.167,0.059c0,0.054 0.058,0.054 0.112,0.112l0.058,0c2.875,1.521 5.696,3.1 8.405,4.904c2.141,1.525 4.17,3.163 6.15,4.909c2.816,2.537 5.525,5.3 8.004,8.125c1.696,1.97 3.216,4.058 4.629,6.258c1.746,2.596 3.325,5.358 4.733,8.179c0.904,1.804 1.696,3.721 2.371,5.642c0.733,2.196 1.354,4.396 1.804,6.654c0.229,1.242 0.454,2.425 0.567,3.667c-0.229,0.508 -0.508,1.012 -0.792,1.52c-0.166,0.396 -0.396,0.792 -0.562,1.13c-0.846,1.633 -1.638,3.27 -2.425,4.908c-1.071,2.367 -2.146,4.679 -3.104,7.05c-0.563,0.167 -1.184,0.337 -1.859,0.508c-0.791,0.167 -1.637,0.279 -2.537,0.338c-0.963,0.054 -1.975,0 -2.934,0c-0.904,-0.059 -1.808,-0.171 -2.766,-0.338c-1.409,-0.283 -2.763,-0.679 -4.063,-1.071c-1.125,-0.341 -2.141,-0.791 -3.212,-1.241c-1.75,-0.846 -3.442,-1.863 -5.134,-2.934c-0.054,-0.058 -0.054,-0.058 -0.112,-0.058c-1.525,-1.017 -2.875,-2.083 -4.288,-3.212c-1.52,-1.355 -2.987,-2.709 -4.512,-4.063c-1.917,-1.692 -3.892,-3.329 -5.975,-4.792c-1.921,-1.358 -3.95,-2.595 -6.096,-3.67c-2.2,-1.071 -4.625,-1.859 -7.104,-2.255c-2.313,-0.337 -4.85,-0.337 -7.221,0.171c-2.2,0.45 -4.512,1.35 -6.487,2.538c-2.255,1.354 -4.4,3.046 -6.092,5.133c-1.863,2.367 -3.213,5.358 -3.383,8.404c-0.167,1.521 -0.167,3.046 0.17,4.513c0.113,0.9 0.338,1.804 0.675,2.591c0.23,0.734 0.567,1.413 0.959,2.088c1.241,2.371 3.104,4.458 5.304,6.092c1.971,1.408 4.175,2.483 6.375,3.441c2.425,0.959 4.962,1.409 7.442,1.467c2.766,0.112 5.587,-0.396 8.237,-0.904c2.254,-0.509 4.454,-1.125 6.713,-1.638c1.466,-0.279 2.875,-0.504 4.395,-0.616c1.467,-0.113 2.934,-0.113 4.4,-0.059c1.413,0.059 2.767,0.225 4.117,0.45c2.033,0.396 4.008,0.846 5.867,1.413c0.958,0.283 1.916,0.675 2.766,1.071c0.959,0.45 1.917,1.07 2.817,1.637c0.792,0.508 1.467,1.013 2.146,1.579c0.733,0.617 1.354,1.296 1.975,1.975c0.617,0.788 1.183,1.521 1.746,2.309c0.171,0.225 0.283,0.454 0.341,0.62c-1.47,5.588 -2.595,11.338 -3.275,17.038c-0.787,5.696 -1.183,11.392 -1.466,17.087l-0.392,0.338c-1.412,1.187 -2.933,2.312 -4.458,3.329c-1.013,0.679 -2.142,1.354 -3.271,1.863c-1.521,0.787 -3.104,1.408 -4.738,1.97c-1.916,0.68 -3.837,1.188 -5.866,1.638c-1.863,0.341 -3.779,0.621 -5.696,0.787c-2.763,0.23 -5.529,0.171 -8.292,0.059c-2.708,-0.167 -5.358,-0.45 -8.066,-0.959c-2.255,-0.396 -4.567,-0.904 -6.767,-1.633c-2.313,-0.85 -4.625,-1.696 -6.883,-2.708c-0.055,-0.059 -0.113,-0.059 -0.167,-0.113l-0.058,0c-0.113,-0.116 -0.225,-0.171 -0.396,-0.225c-0.167,-0.058 -0.392,-0.171 -0.563,-0.283l-0.058,0c-0.054,-0.058 -0.108,-0.058 -0.167,-0.113c-0.112,0 -0.171,-0.058 -0.225,-0.058c-0.058,0 -0.058,-0.054 -0.112,-0.054c-0.171,-0.113 -0.342,-0.171 -0.567,-0.283c0,-0.059 -0.054,-0.059 -0.112,-0.059c-0.055,-0.054 -0.113,-0.054 -0.113,-0.054l-0.054,0c-0.058,-0.054 -0.117,-0.054 -0.171,-0.054c-5.133,-2.542 -10.267,-5.588 -15.962,-6.6c-6.825,-1.188 -13.817,0.167 -19.967,3.158c-2.933,1.409 -5.583,3.042 -8.008,5.246c-2.313,2.142 -4.288,4.625 -5.642,7.5c-1.408,2.933 -2.142,6.092 -2.2,9.304c0.058,3.5 1.017,6.996 2.596,10.154c3.329,6.263 9.079,11 15.962,13.03c2.596,0.787 5.304,1.295 8.067,1.412l1.633,0c1.521,-0.058 3.163,-0.171 4.738,-0.396c1.637,-0.283 3.275,-0.733 4.85,-1.183c2.541,-0.963 4.908,-2.146 7.221,-3.5c1.862,-1.071 3.72,-2.196 5.583,-3.329c3.667,-2.196 7.279,-4.567 11.112,-6.484c2.142,-1.016 4.288,-1.916 6.546,-2.708c1.409,-0.45 2.929,-0.846 4.396,-1.242c1.579,-0.279 3.163,-0.508 4.796,-0.675c2.821,-0.17 5.696,-0.17 8.517,-0.058l0.112,0c2.933,0.225 5.921,0.513 8.8,1.017c1.579,0.337 3.1,0.679 4.625,1.129c1.129,0.396 2.2,0.792 3.271,1.296c1.183,0.562 2.254,1.129 3.271,1.804c0.733,0.454 1.466,0.792 2.2,1.183c0.621,0.284 1.183,0.454 1.804,0.734c0.054,0 0.171,0.058 0.229,0.058c1.35,9.812 3.55,19.517 6.371,28.933c-0.283,0.567 -0.563,1.075 -0.9,1.579c-0.396,0.567 -0.904,1.184 -1.358,1.75c-0.392,0.45 -0.788,0.905 -1.238,1.3c-0.508,0.45 -1.017,0.846 -1.525,1.184c-0.508,0.337 -1.071,0.675 -1.633,0.904c-0.454,0.221 -0.904,0.45 -1.354,0.617c-0.963,0.283 -1.863,0.508 -2.767,0.733c-0.621,0.112 -1.296,0.225 -1.917,0.225c-0.562,0.058 -1.183,0.058 -1.75,0.058c-1.858,-0.112 -3.662,-0.396 -5.412,-0.679c-1.917,-0.225 -3.721,-0.504 -5.584,-0.617c-2.029,-0.17 -4.062,-0.17 -6.15,0.055c-1.97,0.337 -3.945,0.791 -5.808,1.579c-2.029,0.846 -4.058,1.916 -5.754,3.329c-1.971,1.521 -3.667,3.437 -4.796,5.642c-0.617,1.295 -1.067,2.595 -1.35,4.004c-0.171,0.958 -0.225,1.912 -0.171,2.875c0.171,2.2 0.621,4.341 1.521,6.429c0.4,0.904 0.85,1.804 1.413,2.654c0.566,0.954 1.354,1.858 2.087,2.763c0.904,0.958 1.804,1.916 2.875,2.704c1.075,0.791 2.2,1.525 3.388,2.029c1.916,0.904 3.945,1.412 5.975,1.471l0.791,0c2.479,0 5.021,-0.679 7.275,-1.75c1.975,-0.904 3.892,-2.088 5.7,-3.442c1.296,-0.958 2.479,-1.975 3.55,-3.1c0.963,-1.071 1.863,-2.146 2.709,-3.217c0.845,-1.07 1.579,-2.141 2.425,-3.158c0.341,-0.392 0.733,-0.787 1.07,-1.071c0.284,-0.283 0.567,-0.504 0.905,-0.675c0.283,-0.225 0.562,-0.396 0.845,-0.566c0.509,-0.225 1.071,-0.45 1.58,-0.621c0.45,-0.113 0.791,-0.225 1.241,-0.338c0.563,-0.112 1.184,-0.171 1.804,-0.225c0.734,-0.112 1.413,-0.058 2.142,-0.058c1.075,0.112 2.088,0.229 3.104,0.396c0.621,0.112 1.242,0.341 1.863,0.562c0.45,0.059 0.787,0.229 1.183,0.396c0.504,0.279 1.017,0.567 1.579,0.846c1.013,0.792 1.975,1.637 3.046,2.371c0.167,0.054 0.283,0.112 0.45,0.171c1.467,3.154 3.104,6.258 4.85,9.304c3.725,6.487 7.954,12.75 12.692,18.612l0,0.342c0,0.446 -0.113,0.954 -0.167,1.408c-0.117,0.788 -0.283,1.579 -0.454,2.367c-0.45,1.242 -0.9,2.537 -1.463,3.779c-0.454,0.846 -0.904,1.75 -1.412,2.542l-0.054,0.054c-0.792,1.242 -1.75,2.537 -2.767,3.667c-1.017,1.241 -2.2,2.37 -3.383,3.495c-1.692,1.58 -3.496,2.992 -5.359,4.342c-1.691,1.133 -3.387,2.088 -5.133,3.05c-1.408,0.675 -2.821,1.296 -4.287,1.858c-2.313,0.788 -4.68,1.467 -7.05,2.03c-2.65,0.625 -5.3,1.075 -7.95,1.525c-2.484,0.337 -5.025,0.62 -7.505,0.958c-3.216,0.508 -6.375,1.354 -9.362,2.654c-3.158,1.404 -6.092,3.271 -8.854,5.3c-2.992,2.254 -5.642,4.908 -7.559,8.121c-0.958,1.637 -1.695,3.329 -2.258,5.075c-0.504,1.808 -0.958,3.558 -1.012,5.471c-0.113,1.579 -0.113,3.158 0.108,4.737c0.229,1.525 0.508,2.934 1.017,4.404c1.07,3.271 2.766,6.313 5.02,9.025c2.313,2.871 5.246,5.188 8.405,7.105c1.295,0.787 2.708,1.579 4.229,2.145c1.862,0.788 3.779,1.125 5.754,1.405c1.017,0.116 2.033,0.229 2.987,0.287c2.259,0.058 4.571,-0.112 6.83,-0.567c3.154,-0.616 6.37,-1.691 9.079,-3.495c2.483,-1.584 4.85,-3.442 6.879,-5.696c2.087,-2.317 3.892,-4.909 5.304,-7.725c1.183,-2.425 2.254,-4.854 3.158,-7.392c0.959,-2.821 1.638,-5.808 2.484,-8.687c0.391,-1.296 0.841,-2.538 1.408,-3.78c0.675,-1.408 1.467,-2.879 2.313,-4.229c1.183,-1.921 2.537,-3.779 4.004,-5.529c2.033,-2.425 4.229,-4.737 6.6,-6.879c1.858,-1.692 3.891,-3.329 5.979,-4.796c1.125,-0.787 2.254,-1.467 3.383,-2.087c0.959,-0.45 1.917,-0.9 2.821,-1.238c0.733,-0.342 1.467,-0.512 2.254,-0.733c0.509,-0.059 1.017,-0.117 1.525,-0.229c0.45,0 0.959,-0.059 1.467,0c1.242,0 2.425,0.17 3.667,0.337c0.054,0.058 0.054,0.058 0.166,0.058c0.904,0.113 1.75,0.284 2.65,0.342c0.454,0 0.792,-0.058 1.242,-0.117c3.442,2.938 6.937,5.7 10.55,8.405c2.875,2.2 5.808,4.287 8.796,6.375l-0.054,0.62c0,0.617 -0.055,1.184 -0.113,1.805c-0.171,0.85 -0.396,1.691 -0.679,2.537c-0.167,0.508 -0.338,1.017 -0.563,1.525c-0.508,1.129 -1.07,2.313 -1.745,3.383c-0.792,1.238 -1.696,2.425 -2.655,3.496c-0.675,0.85 -1.466,1.579 -2.2,2.313c-0.508,0.45 -1.07,0.846 -1.637,1.3c-0.446,0.337 -0.958,0.616 -1.521,0.9c-1.408,0.733 -2.933,1.408 -4.342,2.087c-1.466,0.621 -2.991,1.188 -4.4,1.917c-3.95,2.033 -7.67,4.85 -10.095,8.633c-1.863,3.213 -2.709,7.046 -2.142,10.717c0.562,3.325 2.029,6.537 4.283,9.079c1.188,1.354 2.538,2.596 4.004,3.663c1.58,1.187 3.33,2.087 5.134,2.82c2.312,0.905 4.85,1.525 7.333,1.638c1.3,0.054 2.596,-0.058 3.892,-0.338c1.862,-0.454 3.666,-1.012 5.358,-1.975c1.467,-0.733 2.763,-1.691 3.946,-2.762c1.017,-1.017 1.979,-2.146 2.708,-3.329c0.904,-1.413 1.75,-2.821 2.371,-4.342c1.183,-2.875 1.579,-5.979 2.029,-8.967c0.396,-2.766 0.734,-5.529 1.188,-8.237c0.279,-1.633 0.616,-3.213 1.071,-4.85c0.225,-0.679 0.508,-1.413 0.787,-2.088c0.342,-0.679 0.679,-1.295 1.071,-1.862c0.229,-0.396 0.454,-0.733 0.737,-1.071c0.392,-0.508 0.846,-0.958 1.296,-1.354c0.392,-0.338 0.788,-0.675 1.129,-0.904c0.338,-0.225 0.675,-0.446 1.013,-0.617c0.904,-0.454 1.862,-0.792 2.821,-1.183c0.45,-0.284 0.846,-0.567 1.183,-0.963c2.879,1.692 5.813,3.271 8.742,4.85c5.866,2.992 11.958,5.588 18.05,7.954c0.171,0.396 0.283,0.846 0.337,1.242c0.229,1.129 0.396,2.254 0.513,3.383c0.108,0.959 0.108,1.921 0.054,2.875c-0.054,1.188 -0.229,2.371 -0.396,3.5c-0.337,1.58 -0.787,3.042 -1.242,4.571c-0.845,2.425 -1.804,4.85 -2.875,7.217c-1.187,2.367 -2.595,4.792 -4.062,6.996c-1.296,2.029 -2.763,3.887 -4.342,5.696c-1.525,1.75 -3.158,3.495 -4.908,5.075c-1.692,1.466 -3.438,2.875 -5.188,4.287c-2.2,1.804 -4.4,3.554 -6.429,5.471c-4.121,3.721 -7.729,8.008 -10.1,13.142c-1.408,2.933 -2.141,6.204 -2.65,9.42c-0.45,3.046 -0.504,6.205 -0.054,9.25c0.508,3.159 1.521,6.205 3.217,8.855c0.787,1.354 1.687,2.591 2.762,3.779c1.013,1.129 2.142,2.087 3.271,2.875c2.425,1.808 5.188,3.216 8.121,3.95c1.296,0.337 2.708,0.508 4.062,0.621l0.392,0c1.467,0.054 2.992,-0.113 4.458,-0.284c2.875,-0.337 5.584,-1.354 8.121,-2.704c2.425,-1.242 4.571,-3.05 6.429,-4.967c0.905,-0.9 1.696,-1.862 2.542,-2.875c1.183,-1.3 2.142,-2.762 2.988,-4.345c1.354,-2.592 2.254,-5.413 2.762,-8.346c0.45,-2.654 0.508,-5.417 0.508,-8.121c0,-2.763 -0.166,-5.475 -0.45,-8.238c-0.283,-2.308 -0.62,-4.625 -0.958,-6.937c-0.454,-2.538 -0.904,-5.021 -1.183,-7.613c-0.171,-1.97 -0.171,-4.008 -0.117,-6.037c0.171,-2.533 0.454,-5.017 0.904,-7.5c0.45,-2.483 1.017,-4.908 1.804,-7.275c0.792,-2.538 1.805,-5.021 2.992,-7.504c0.958,-1.917 1.975,-3.779 3.158,-5.638c1.467,-2.204 3.213,-4.233 4.905,-6.262c0.283,-0.284 0.566,-0.621 0.85,-0.959c1.066,0.284 2.195,0.621 3.383,0.9c8.008,2.03 16.071,3.838 24.308,4.967c0.734,0.113 1.467,0.225 2.146,0.283c-0.058,0.9 -0.171,1.805 -0.342,2.763c-0.112,0.45 -0.225,0.954 -0.45,1.521c-0.283,1.129 -0.733,2.204 -1.241,3.271c-0.621,1.241 -1.296,2.37 -2.029,3.495c-1.467,2.259 -3.217,4.292 -4.85,6.434c-0.85,1.183 -1.75,2.371 -2.538,3.608c-0.792,1.129 -1.412,2.313 -1.975,3.554c-1.3,2.709 -2.087,5.696 -2.371,8.688c-0.054,1.296 -0.112,2.596 -0.054,3.946c0.108,1.354 0.45,2.712 0.788,4.062c0.679,2.596 1.916,5.079 3.495,7.275c1.75,2.425 4.23,4.288 7.055,5.133c1.07,0.396 2.254,0.563 3.383,0.621c0.283,0 0.504,-0.058 0.787,-0.058c1.3,0 2.596,-0.054 3.838,-0.338c5.021,-1.012 9.25,-4.229 12.296,-8.12c0.9,-1.242 1.633,-2.484 2.2,-3.892c0.508,-1.125 0.958,-2.313 1.296,-3.5c0.279,-1.183 0.508,-2.367 0.562,-3.608c0.058,-0.617 0.117,-1.296 0.117,-1.975c0,-0.509 -0.059,-0.959 -0.117,-1.463c-0.504,-5.646 -2.367,-11.054 -3.667,-16.587c-0.225,-1.35 -0.45,-2.705 -0.616,-4.059c-0.059,-0.675 -0.113,-1.35 -0.059,-1.975c0.059,-1.071 0.113,-2.141 0.284,-3.212c0.166,-1.184 0.391,-2.371 0.391,-3.554l0.059,-0.621l0,-0.059c0.675,0 1.296,0.059 2.029,0.113c1.808,0.058 3.612,0.058 5.417,0.058c4.287,0 8.516,-0.112 12.745,-0.396c3.384,-0.17 6.767,-0.562 10.155,-0.9c2.933,-0.337 5.808,-0.733 8.683,-1.187c0.567,0.621 1.187,1.129 1.75,1.696c0.675,0.787 1.296,1.579 1.917,2.366c0.566,0.846 1.187,1.638 1.637,2.484c0.508,0.958 1.013,1.971 1.408,2.933c0.455,1.125 0.734,2.254 1.017,3.379c0.225,0.846 0.396,1.696 0.508,2.542c0.167,1.467 0.225,2.933 0.225,4.454c0,1.638 -0.166,3.163 -0.337,4.792c-0.508,3.162 -1.296,6.379 -1.638,9.591c-0.17,1.58 -0.112,3.1 0,4.63c0.171,1.745 0.45,3.437 0.905,5.129c0.733,2.425 1.804,4.683 3.1,6.879c0.733,1.187 1.525,2.258 2.537,3.275c0.963,1.017 1.975,2.087 3.046,2.933c2.483,1.917 5.25,3.384 8.237,4.175c1.409,0.45 2.821,0.788 4.288,0.846l0.846,0.054c0.846,0 1.804,0 2.65,-0.054c1.296,-0.117 2.596,-0.287 3.833,-0.679c1.358,-0.454 2.654,-1.071 3.892,-1.863c2.033,-1.295 3.725,-3.045 5.416,-4.85c1.917,-2.087 3.667,-4.512 4.85,-7.108c0.675,-1.35 1.13,-2.821 1.58,-4.283c0.283,-1.354 0.62,-2.767 0.679,-4.175c0.112,-2.596 -0.284,-5.129 -1.129,-7.559" style="fill:#fff;fill-rule:nonzero;"/><g><g><path d="M393.068,229.235c0,34.203 23.779,58.145 57.493,58.145c27.2,0 47.722,-15.147 54.237,-39.904l-30.62,0c-4.724,9.773 -13.356,14.659 -23.942,14.659c-17.102,0 -28.829,-12.704 -28.829,-32.9c0,-20.196 11.727,-32.9 28.829,-32.9c10.586,0 19.218,4.886 23.942,14.658l30.62,0c-6.515,-24.756 -27.037,-40.066 -54.237,-40.066c-33.714,0 -57.493,24.105 -57.493,58.308Z" style="fill:#fff;fill-rule:nonzero;"/><path d="M634.443,229.072c0,-34.366 -25.896,-58.471 -58.471,-58.471c-32.411,0 -58.796,24.105 -58.796,58.471c0,34.366 26.385,58.634 58.796,58.634c32.412,0 58.471,-24.268 58.471,-58.634Zm-88.765,0c0,-20.359 11.727,-33.226 30.294,-33.226c18.242,0 30.132,12.867 30.132,33.226c0,20.033 -11.89,33.226 -30.132,33.226c-18.567,0 -30.294,-13.193 -30.294,-33.226Z" style="fill:#fff;fill-rule:nonzero;"/><path d="M699.266,258.552l-28.339,-86.322l-29.643,0l40.555,114.336l34.854,0l40.556,-114.336l-29.48,0l-28.503,86.322Z" style="fill:#fff;fill-rule:nonzero;"/><rect x="768.812" y="172.23" width="27.851" height="114.336" style="fill:#fff;fill-rule:nonzero;"/><path d="M859.695,172.23l-42.835,0l0,114.336l42.835,0c36.483,0 59.937,-23.291 59.937,-57.168c0,-34.04 -23.454,-57.168 -59.937,-57.168Zm-14.984,90.231l0,-66.452l13.192,0c21.011,0 33.389,12.378 33.389,33.389c0,21.01 -12.378,33.063 -33.389,33.063l-13.192,0Z" style="fill:#fff;fill-rule:nonzero;"/></g><g><path d="M393.068,325.394l12.443,0l0,40.588l5.928,0l0,-40.588l12.379,0l0,-4.821l-30.75,0l0,4.821Z" style="fill:#fff;fill-rule:nonzero;"/><path d="M437.043,346.567c0,-8.273 4.3,-10.814 9.968,-10.814l1.563,0l0,-6.124c-5.668,0 -9.511,2.475 -11.531,6.45l0,-5.799l-5.929,0l0,35.702l5.929,0l0,-19.415Z" style="fill:#fff;fill-rule:nonzero;"/><path d="M453.2,348.001c0,11.075 7.362,18.567 16.873,18.567c6.58,0 11.206,-3.388 13.356,-7.231l0,6.645l5.993,0l0,-35.702l-5.993,0l0,6.515c-2.085,-3.713 -6.645,-7.101 -13.291,-7.101c-9.576,0 -16.938,7.166 -16.938,18.307Zm30.229,0.065c0,8.404 -5.603,13.29 -12.118,13.29c-6.515,0 -12.052,-4.951 -12.052,-13.355c0,-8.404 5.537,-13.16 12.052,-13.16c6.515,0 12.118,4.951 12.118,13.225Z" style="fill:#fff;fill-rule:nonzero;"/><path d="M497.24,348.066c0,11.336 7.232,18.502 17.395,18.502c8.86,0 14.658,-4.951 16.483,-12.052l-6.385,0c-1.303,4.495 -4.821,7.036 -10.098,7.036c-6.515,0 -11.336,-4.626 -11.336,-13.486c0,-8.73 4.821,-13.356 11.336,-13.356c5.277,0 8.86,2.737 10.098,7.036l6.385,0c-1.825,-7.492 -7.623,-12.052 -16.483,-12.052c-10.163,0 -17.395,7.166 -17.395,18.372Z" style="fill:#fff;fill-rule:nonzero;"/><path d="M539.001,365.982l5.928,0l0,-15.766l14.007,15.766l8.078,0l-16.873,-17.916l16.808,-17.786l-8.274,0l-13.746,15.831l0,-28.339l-5.928,0l0,48.21Z" style="fill:#fff;fill-rule:nonzero;"/><path d="M572.552,365.982l5.929,0l0,-35.702l-5.929,0l0,35.702Zm3.062,-41.5c2.15,0 3.909,-1.759 3.909,-4.039c0,-2.28 -1.759,-4.039 -3.909,-4.039c-2.28,0 -4.039,1.759 -4.039,4.039c0,2.28 1.759,4.039 4.039,4.039Z" style="fill:#fff;fill-rule:nonzero;"/><path d="M614.703,365.982l5.864,0l0,-21.043c0,-10.229 -6.32,-15.31 -14.594,-15.31c-4.821,0 -9.12,2.019 -11.466,5.733l0,-5.082l-5.928,0l0,35.702l5.928,0l0,-19.74c0,-7.688 4.17,-11.466 10.229,-11.466c5.993,0 9.967,3.713 9.967,11.01l0,20.196Z" style="fill:#fff;fill-rule:nonzero;"/><path d="M628.059,348.001c0,11.075 7.362,18.567 16.938,18.567c6.515,0 11.141,-3.453 13.291,-7.297l0,7.493c0,7.622 -4.756,11.661 -11.076,11.661c-5.863,0 -10.098,-2.932 -11.401,-7.231l-5.863,0c1.173,7.622 7.883,12.378 17.264,12.378c10.489,0 17.069,-6.971 17.069,-16.808l0,-36.484l-5.993,0l0,6.515c-2.085,-3.844 -6.776,-7.101 -13.291,-7.101c-9.576,0 -16.938,7.166 -16.938,18.307Zm30.229,0.065c0,8.404 -5.603,13.29 -12.118,13.29c-6.515,0 -12.052,-4.951 -12.052,-13.355c0,-8.404 5.537,-13.16 12.052,-13.16c6.515,0 12.118,4.951 12.118,13.225Z" style="fill:#fff;fill-rule:nonzero;"/><path d="M721.221,353.604c0,-16.809 -24.496,-9.512 -24.496,-21.239c0,-4.886 3.844,-7.427 8.73,-7.297c5.538,0.066 8.405,3.518 8.795,6.58l6.515,0c-0.716,-6.905 -6.384,-11.661 -15.049,-11.661c-8.991,0 -15.049,5.081 -15.049,12.573c0,16.874 24.561,9.056 24.561,21.304c0,4.3 -3.388,7.557 -9.121,7.557c-6.32,0 -8.991,-3.778 -9.382,-7.557l-6.319,0c0.13,7.492 6.58,12.574 15.701,12.574c9.837,0 15.114,-6.385 15.114,-12.834Z" style="fill:#fff;fill-rule:nonzero;"/><path d="M743.502,359.206l-11.205,-28.926l-6.58,0l14.397,35.311l-7.036,17.199l6.124,0l21.499,-52.51l-6.124,0l-11.075,28.926Z" style="fill:#fff;fill-rule:nonzero;"/><path d="M792.299,356.275c-0.261,-12.77 -20.978,-8.144 -20.978,-16.613c0,-2.867 2.606,-4.952 6.971,-4.952c4.755,0 7.492,2.606 7.752,6.19l5.929,0c-0.391,-6.971 -5.603,-11.206 -13.486,-11.206c-7.948,0 -13.095,4.495 -13.095,9.968c0,13.29 21.108,8.664 21.108,16.613c0,2.931 -2.606,5.277 -7.296,5.277c-5.017,0 -8.079,-2.606 -8.405,-6.059l-6.124,0c0.391,6.515 6.255,11.075 14.594,11.075c7.883,0 13.03,-4.43 13.03,-10.293Z" style="fill:#fff;fill-rule:nonzero;"/><path d="M801.941,356.209c0,7.167 3.583,9.773 9.902,9.773l5.342,0l0,-5.017l-4.365,0c-3.648,0 -4.951,-1.238 -4.951,-4.756l0,-21.043l9.316,0l0,-4.886l-9.316,0l0,-8.99l-5.928,0l0,8.99l-4.626,0l0,4.886l4.626,0l0,21.043Z" style="fill:#fff;fill-rule:nonzero;"/><path d="M839.531,334.71c6.124,0 11.336,3.844 11.271,10.815l-22.541,0c0.651,-6.971 5.472,-10.815 11.27,-10.815Zm16.678,20.262l-6.384,0c-1.303,3.843 -4.691,6.58 -10.033,6.58c-6.059,0 -11.141,-3.974 -11.597,-11.206l28.536,0c0.13,-1.238 0.195,-2.28 0.195,-3.583c0,-9.772 -6.775,-17.069 -17.134,-17.069c-10.424,0 -17.655,7.101 -17.655,18.372c0,11.336 7.492,18.502 17.655,18.502c8.86,0 14.593,-5.082 16.417,-11.596Z" style="fill:#fff;fill-rule:nonzero;"/><path d="M916.276,365.982l5.864,0l0,-21.043c0,-10.229 -6.32,-15.31 -14.463,-15.31c-5.473,0 -10.554,2.801 -12.639,7.948c-2.345,-5.342 -7.232,-7.948 -13.095,-7.948c-4.691,0 -8.925,2.019 -11.271,5.798l0,-5.147l-5.928,0l0,35.702l5.928,0l0,-19.675c0,-7.688 4.105,-11.531 10.098,-11.531c5.864,0 9.773,3.713 9.773,11.01l0,20.196l5.863,0l0,-19.675c0,-7.688 4.104,-11.531 10.098,-11.531c5.863,0 9.772,3.713 9.772,11.01l0,20.196Z" style="fill:#fff;fill-rule:nonzero;"/></g></g></svg>